<svg width="67" height="136" viewBox="0 0 67 136" fill="none" xmlns="http://www.w3.org/2000/svg">
<path d="M33.4999 135.347C30.7944 135.347 28.0889 133.888 26.0405 131.023L0.840642 95.7801C-0.280214 94.2126 -0.280214 91.618 0.840642 90.0505C1.9615 88.4829 3.81671 88.4829 4.93756 90.0505L30.1374 125.293C31.9926 127.888 35.0073 127.888 36.8625 125.293L62.0624 90.0505C63.1833 88.4829 65.0385 88.4829 66.1594 90.0505C67.2802 91.618 67.2802 94.2126 66.1594 95.7801L40.9594 131.023C38.911 133.888 36.2055 135.347 33.4999 135.347Z" fill="#0F2233"/>
<rect x="31" width="5" height="127" fill="#0F2233"/>
<rect x="6" y="5" width="5" height="56" transform="rotate(-90 6 5)" fill="#0F2233"/>
</svg>
