<svg width="733" height="770" viewBox="0 0 733 770" fill="none" xmlns="http://www.w3.org/2000/svg">
<path d="M732.466 402.856C732.466 605.127 568.504 769.089 366.233 769.089C163.97 769.089 0 605.127 0 402.856C0 200.593 163.97 36.6233 366.233 36.6233C568.504 36.6233 732.466 200.593 732.466 402.856Z" fill="#C0392B"/>
<path d="M732.466 366.233C732.466 568.504 568.504 732.466 366.233 732.466C163.97 732.466 0 568.504 0 366.233C0 163.97 163.97 0 366.233 0C568.504 0 732.466 163.97 732.466 366.233Z" fill="#E74C3C"/>
<path d="M184.958 271.013L314.447 402.856L184.958 531.038L236.751 582.311L366.233 454.13L495.733 582.311L547.518 531.038L418.018 402.856L547.518 271.013L495.733 219.74L366.233 347.921L236.751 219.74L184.958 271.013Z" fill="#C0392B"/>
<path d="M184.958 234.39L314.447 366.233L184.958 494.415L236.751 545.688L366.233 417.507L495.733 545.688L547.518 494.415L418.018 366.233L547.518 234.39L495.733 183.117L366.233 311.298L236.751 183.117L184.958 234.39Z" fill="#ECF0F1"/>
</svg>
