<svg width="733" height="770" viewBox="0 0 733 770" fill="none" xmlns="http://www.w3.org/2000/svg">
<path d="M732.659 403.213C732.659 605.484 568.697 769.446 366.426 769.446C164.163 769.446 0.193054 605.484 0.193054 403.213C0.193054 200.95 164.163 36.9802 366.426 36.9802C568.697 36.9802 732.659 200.95 732.659 403.213Z" fill="#27AE60"/>
<path d="M732.659 366.59C732.659 568.861 568.697 732.823 366.426 732.823C164.163 732.823 0.193054 568.861 0.193054 366.59C0.193054 164.327 164.163 0.356934 366.426 0.356934C568.697 0.356934 732.659 164.327 732.659 366.59Z" fill="#2ECC71"/>
<path d="M512.919 256.72L293.179 476.46L201.621 384.902L123.797 461.81L215.355 553.368L288.602 626.614L293.179 630.276L590.744 333.628L512.919 256.72Z" fill="#27AE60"/>
<path d="M512.919 220.097L293.179 439.837L201.621 348.278L123.797 425.186L215.355 516.745L288.602 589.991L293.179 593.653L590.744 297.005L512.919 220.097Z" fill="#ECF0F1"/>
</svg>
